<svg width="94" height="146" viewBox="0 0 94 146" fill="none" xmlns="http://www.w3.org/2000/svg">
<g clip-path="url(#clip0_87_628)">
<path d="M69.3515 25.8548L59.0637 0L45.5425 35.3883L34.1885 23.0091L29.5364 31.0501L6.0625 7.57978V74.3706H87.6293V7.57978L69.3515 25.8548ZM83.3035 18.0096V60.9298L71.0879 30.2234L83.3035 18.0096ZM82.2808 70.0455H11.968L30.459 38.0817L46.8437 54.4639L67.7631 33.5477L82.2808 70.0412V70.0455ZM34.9806 30.2669L47.0831 43.4641L59.142 11.8962L66.018 29.1791L46.8394 48.3548L32.6915 34.2134L34.9719 30.2669H34.9806ZM27.2952 34.9227L10.3839 64.1584V18.0096L27.2952 34.9183V34.9227Z" fill="#CECECA"/>
<path d="M0 87.7289H13.3689L17.0157 101.387C17.6859 104.32 17.8121 104.99 18.2299 107.67C18.7739 104.024 18.9436 103.271 19.6138 100.421L22.9647 87.7246H36.3728V117.304H27.4471V100.208C27.4906 98.0282 27.5298 97.4843 27.6995 94.9693C27.1947 97.1884 27.112 97.6105 26.5245 99.7469L21.62 117.3H14.6657L10.0963 100.665C9.46963 98.2762 9.42611 98.2371 8.71241 95.1346C8.83861 96.9796 8.88213 97.4408 8.88213 99.116V117.3H0V87.7202V87.7289Z" fill="#CECECA"/>
<path d="M38.3403 87.6895H62.6845V95.0212H55.182V117.308H45.8385V95.0212H38.3359V87.6895H38.3403Z" fill="#CECECA"/>
<path d="M65.0253 87.729H74.9562L81.6189 98.9159C83.2552 101.975 83.7122 102.854 85.2223 106.165C84.9698 103.276 84.9307 102.645 84.8436 99.338V87.7334H93.5996V117.313H83.5424L77.5499 107.092C75.831 104.159 75.3305 103.237 73.4418 99.2988C73.6507 101.979 73.6942 102.649 73.7334 105.334V117.317H65.0166V87.7377L65.0253 87.729Z" fill="#CECECA"/>
<path d="M7.64655 145.778H5.70998V138.542H2.17193V145.778H0.235352V130.253H2.17193V136.849H5.71433V130.253H7.65091V145.778H7.64655Z" fill="#CECECA"/>
<path d="M37.0469 145.778H35.0233L34.475 142.789H30.8673L30.3407 145.778H28.3389L31.6811 130.253H33.6177L37.0469 145.778ZM34.1442 141.118L32.6254 133.138L31.198 141.118H34.1442Z" fill="#CECECA"/>
<path d="M65.2166 130.257V140.722C65.2166 142.636 65.1948 143.407 64.8423 144.194C64.1373 145.843 62.2704 145.996 61.4566 145.996C59.7855 145.996 58.5756 145.491 58.0273 144.303C57.7183 143.62 57.6748 143.18 57.6748 140.852V130.253H59.6331V141.575C59.6331 142.915 59.6331 144.325 61.5044 144.325C63.1755 144.325 63.2191 143.159 63.2408 142.432C63.2626 141.818 63.2626 141.683 63.2626 140.539V130.249H65.2209L65.2166 130.257Z" fill="#CECECA"/>
<path d="M86.4365 140.413H88.2817C88.2817 142.04 88.2817 142.214 88.3035 142.502C88.3252 142.898 88.4558 144.346 90.1748 144.346C90.7884 144.346 92.1331 144.103 92.1331 142.41C92.1331 141.179 91.5848 140.565 90.7057 139.66L88.595 137.506C87.1198 135.988 86.8151 135.044 86.8151 133.638C86.8151 132.781 86.8151 130.009 90.4228 130.009C91.2149 130.009 92.5552 130.14 93.2602 131.284C93.6998 132.011 93.6998 132.537 93.6998 134.826H92.0069C91.9634 133.351 91.9634 133.199 91.9199 132.912C91.8763 132.624 91.6762 131.658 90.314 131.658C88.6864 131.658 88.6864 133.064 88.6864 133.503C88.6864 134.669 89.1042 135.131 90.2052 136.297L92.1636 138.342C93.4387 139.704 94.0087 140.496 94.0087 142.28C94.0087 145.578 91.415 145.996 90.2487 145.996C88.7517 145.996 87.9597 145.491 87.655 145.225C86.6672 144.455 86.4452 143.289 86.4452 142.127V140.413H86.4365Z" fill="#CECECA"/>
</g>
<defs>
<clipPath id="clip0_87_628">
<rect width="94" height="146" fill="white"/>
</clipPath>
</defs>
</svg>
